<svg width="1236" height="788" viewBox="0 0 1236 788" fill="none" xmlns="http://www.w3.org/2000/svg">
  <defs>
    <linearGradient id="leftPanel" x1="132" y1="354" x2="612" y2="676" gradientUnits="userSpaceOnUse">
      <stop stop-color="#FFFFFF" stop-opacity="0.98"/>
      <stop offset="1" stop-color="#F4F8FF" stop-opacity="0.94"/>
    </linearGradient>
    <linearGradient id="leftAccent" x1="313" y1="388" x2="488" y2="560" gradientUnits="userSpaceOnUse">
      <stop stop-color="#7F68FF"/>
      <stop offset="0.52" stop-color="#4D8DFF"/>
      <stop offset="1" stop-color="#33D3D0"/>
    </linearGradient>
    <linearGradient id="leftArea" x1="173" y1="448" x2="532" y2="603" gradientUnits="userSpaceOnUse">
      <stop stop-color="#7C69FF" stop-opacity="0.28"/>
      <stop offset="1" stop-color="#31D3D0" stop-opacity="0.06"/>
    </linearGradient>
    <linearGradient id="leftBars" x1="52" y1="352" x2="139" y2="560" gradientUnits="userSpaceOnUse">
      <stop stop-color="#4B88FF"/>
      <stop offset="1" stop-color="#7C68FF"/>
    </linearGradient>
    <linearGradient id="leftChip" x1="536" y1="511" x2="770" y2="583" gradientUnits="userSpaceOnUse">
      <stop stop-color="#FFFFFF" stop-opacity="0.98"/>
      <stop offset="1" stop-color="#EEF6FF" stop-opacity="0.94"/>
    </linearGradient>
    <filter id="shadowSoft" x="-80" y="120" width="980" height="620" filterUnits="userSpaceOnUse" color-interpolation-filters="sRGB">
      <feFlood flood-opacity="0" result="BackgroundImageFix"/>
      <feGaussianBlur in="BackgroundImageFix" stdDeviation="24"/>
      <feComposite in2="SourceAlpha" operator="in" result="effect1_backgroundBlur_0_1"/>
      <feBlend mode="normal" in="SourceGraphic" in2="effect1_backgroundBlur_0_1" result="shape"/>
      <feDropShadow dx="0" dy="20" stdDeviation="24" flood-color="#3C6BFF" flood-opacity="0.12"/>
    </filter>
    <filter id="glowBlue" x="0" y="200" width="840" height="520" filterUnits="userSpaceOnUse" color-interpolation-filters="sRGB">
      <feFlood flood-opacity="0" result="BackgroundImageFix"/>
      <feBlend mode="normal" in="SourceGraphic" in2="BackgroundImageFix" result="shape"/>
      <feGaussianBlur stdDeviation="34" result="effect1_foregroundBlur_0_1"/>
    </filter>
  </defs>

  <g opacity="0.72" filter="url(#glowBlue)">
    <circle cx="215" cy="540" r="112" fill="#56A6FF"/>
    <circle cx="462" cy="482" r="132" fill="#6E6AFF"/>
    <circle cx="615" cy="556" r="96" fill="#39D0D0"/>
  </g>

  <g filter="url(#shadowSoft)">
    <rect x="16" y="292" width="128" height="250" rx="36" fill="url(#leftPanel)"/>
    <rect x="46" y="335" width="16" height="150" rx="8" fill="url(#leftBars)"/>
    <rect x="74" y="390" width="16" height="95" rx="8" fill="url(#leftBars)"/>
    <rect x="102" y="360" width="16" height="125" rx="8" fill="url(#leftBars)"/>
    <circle cx="82" cy="509" r="11" fill="#33D3D0"/>
    <circle cx="112" cy="324" r="8" fill="#7C68FF"/>
  </g>

  <g filter="url(#shadowSoft)">
    <rect x="132" y="354" width="436" height="268" rx="42" fill="url(#leftPanel)"/>
    <text x="174" y="413" fill="#0F172A" font-size="24" font-weight="700" font-family="Inter, Arial, sans-serif">Creator Trend</text>
    <text x="174" y="441" fill="#64748B" font-size="13" font-weight="500" font-family="Inter, Arial, sans-serif">Multi-channel growth dashboard</text>

    <path d="M173 558L173 474C212 461 239 452 270 421C296 395 329 398 357 424C385 448 413 478 458 447C490 425 522 398 532 383V558H173Z" fill="url(#leftArea)"/>
    <path d="M173 475C212 462 239 452 270 421C296 395 329 398 357 424C385 448 413 478 458 447C490 425 522 398 532 383" stroke="url(#leftAccent)" stroke-width="8" stroke-linecap="round" stroke-linejoin="round"/>
    <circle cx="270" cy="421" r="9" fill="#FFFFFF" stroke="#5B7DFF" stroke-width="4"/>
    <circle cx="357" cy="424" r="9" fill="#FFFFFF" stroke="#7C68FF" stroke-width="4"/>
    <circle cx="458" cy="447" r="9" fill="#FFFFFF" stroke="#33D3D0" stroke-width="4"/>

    <g opacity="0.58">
      <path d="M175 501H528" stroke="#D8E4F8" stroke-width="2" stroke-linecap="round" stroke-dasharray="6 8"/>
      <path d="M175 466H528" stroke="#E3ECFA" stroke-width="2" stroke-linecap="round" stroke-dasharray="6 8"/>
      <path d="M175 536H528" stroke="#E3ECFA" stroke-width="2" stroke-linecap="round" stroke-dasharray="6 8"/>
    </g>

    <rect x="185" y="579" width="106" height="24" rx="12" fill="#EEF4FF"/>
    <text x="204" y="596" fill="#3C68F4" font-size="12" font-weight="700" font-family="Inter, Arial, sans-serif">Reach +18%</text>
    <rect x="306" y="579" width="112" height="24" rx="12" fill="#F3EEFF"/>
    <text x="329" y="596" fill="#7657FF" font-size="12" font-weight="700" font-family="Inter, Arial, sans-serif">GMV +28%</text>
    <rect x="431" y="579" width="96" height="24" rx="12" fill="#EAFBF9"/>
    <text x="453" y="596" fill="#0FA7A0" font-size="12" font-weight="700" font-family="Inter, Arial, sans-serif">ROI 3.6x</text>
  </g>

  <g filter="url(#shadowSoft)">
    <rect x="252" y="250" width="214" height="84" rx="28" fill="#FFFFFF" fill-opacity="0.94"/>
    <text x="286" y="286" fill="#64748B" font-size="14" font-weight="600" font-family="Inter, Arial, sans-serif">Realtime signal</text>
    <text x="286" y="315" fill="#0F172A" font-size="28" font-weight="800" font-family="Inter, Arial, sans-serif">1.28M</text>
    <path d="M406 300L429 277L447 292" stroke="#2DD4BF" stroke-width="6" stroke-linecap="round" stroke-linejoin="round"/>
  </g>

  <g filter="url(#shadowSoft)">
    <circle cx="552" cy="285" r="74" fill="#FFFFFF" fill-opacity="0.94"/>
    <path d="M552 229C580 229 605.834 244.185 620.057 268.667C634.28 293.149 634.735 323.365 621.252 348.263C607.769 373.16 582.409 389.117 554.152 390.916C525.894 392.715 498.75 380.106 482.204 356.589L511.657 335.876C520.622 348.621 535.329 355.396 550.643 353.693C565.956 351.989 578.965 342.042 584.669 327.725C590.373 313.409 587.856 297.082 578.099 285.123C568.341 273.164 552.936 267.432 537.81 270.146L530.996 232.896C537.89 230.288 544.928 229 552 229Z" fill="url(#leftAccent)"/>
    <circle cx="552" cy="285" r="38" fill="#F8FBFF"/>
    <text x="520" y="291" fill="#0F172A" font-size="18" font-weight="800" font-family="Inter, Arial, sans-serif">CTR</text>
    <text x="521" y="313" fill="#64748B" font-size="14" font-weight="700" font-family="Inter, Arial, sans-serif">7.42%</text>
  </g>

  <g filter="url(#shadowSoft)">
    <rect x="540" y="507" width="236" height="78" rx="30" fill="url(#leftChip)"/>
    <circle cx="588" cy="546" r="22" fill="url(#leftAccent)"/>
    <path d="M579 549L587 540L595 548L603 538" stroke="white" stroke-width="4.5" stroke-linecap="round" stroke-linejoin="round"/>
    <text x="623" y="535" fill="#64748B" font-size="13" font-weight="600" font-family="Inter, Arial, sans-serif">Live commerce</text>
    <text x="623" y="562" fill="#0F172A" font-size="24" font-weight="800" font-family="Inter, Arial, sans-serif">Conversion up</text>
  </g>

  <g opacity="0.86">
    <circle cx="171" cy="273" r="8" fill="#7C68FF"/>
    <circle cx="206" cy="246" r="6" fill="#2DD4BF"/>
    <circle cx="709" cy="496" r="8" fill="#56A6FF"/>
    <circle cx="764" cy="468" r="6" fill="#7C68FF"/>
    <path d="M175 272L252 292" stroke="#C8D8F4" stroke-width="3" stroke-linecap="round" stroke-dasharray="5 8"/>
    <path d="M466 333L518 261" stroke="#C8D8F4" stroke-width="3" stroke-linecap="round" stroke-dasharray="5 8"/>
    <path d="M564 358L621 507" stroke="#C8D8F4" stroke-width="3" stroke-linecap="round" stroke-dasharray="5 8"/>
  </g>
</svg>
